<?xml version="1.0" encoding="utf-8"?>
<!-- Generator: Adobe Illustrator 23.0.1, SVG Export Plug-In . SVG Version: 6.00 Build 0)  -->
<svg version="1.1" id="svg6476" xmlns:svg="http://www.w3.org/2000/svg"
	 xmlns="http://www.w3.org/2000/svg" xmlns:xlink="http://www.w3.org/1999/xlink" x="0px" y="0px" viewBox="0 0 550 300"
	 style="enable-background:new 0 0 550 300;" xml:space="preserve">
<style type="text/css">
	.st0{fill:#FFFEEA;stroke:#000000;stroke-width:2;}
	.st1{fill:none;stroke:#000000;}
	.st2{font-family:'ArialMT';}
	.st3{font-size:14px;}
</style>
<g id="g6584">
	<path id="path5624" class="st0" d="M49.4,13.6c-17.6,0-30.3,8.9-30.3,21.1c0,5.3,3.7,14,3.7,23.2S11,76.9,11,99.2
		c0,12.9,13.3,25,39.7,25s38-12.2,38-25c0-20.9-12.2-33-12.2-41.5s4.7-18.4,4.7-23.4C81.2,22,67,13.6,49.4,13.6z"/>
	<g transform="translate(90,0)">
		<path class="st0" d="M139.4,13.6c-17.6,0-30.3,8.9-30.3,21.1c0,5.3,3.7,14,3.7,23.2S101,76.9,101,99.2c0,12.9,13.3,25,39.7,25
			s38-12.2,38-25c0-20.9-12.2-33-12.2-41.5s4.7-18.4,4.7-23.4C171.2,22,157,13.6,139.4,13.6z"/>
	</g>
	<g transform="translate(180,0)">
		<path class="st0" d="M229.4,13.6c-17.6,0-30.3,8.9-30.3,21.1c0,5.3,3.7,14,3.7,23.2s-11.9,19-11.9,41.3c0,12.9,13.3,25,39.7,25
			s38-12.2,38-25c0-20.9-12.2-33-12.2-41.5s4.7-18.4,4.7-23.4C261.2,22,247,13.6,229.4,13.6z"/>
	</g>
	<g transform="translate(270,0)">
		<path class="st0" d="M319.4,13.6c-17.6,0-30.3,8.9-30.3,21.1c0,5.3,3.7,14,3.7,23.2S281,76.9,281,99.2c0,12.9,13.3,25,39.7,25
			s38-12.2,38-25c0-20.9-12.2-33-12.2-41.5s4.7-18.4,4.7-23.4C351.2,22,337,13.6,319.4,13.6z"/>
	</g>
	<g transform="translate(360,0)">
		<path class="st0" d="M409.4,13.6c-17.6,0-30.3,8.9-30.3,21.1c0,5.3,3.7,14,3.7,23.2S371,76.9,371,99.2c0,12.9,13.3,25,39.7,25
			s38-12.2,38-25c0-20.9-12.2-33-12.2-41.5s4.7-18.4,4.7-23.4C441.2,22,427,13.6,409.4,13.6z"/>
	</g>
	<g transform="translate(450,0)">
		<path class="st0" d="M499.4,13.6c-17.6,0-30.3,8.9-30.3,21.1c0,5.3,3.7,14,3.7,23.2S461,76.9,461,99.2c0,12.9,13.3,25,39.7,25
			s38-12.2,38-25c0-20.9-12.2-33-12.2-41.5s4.7-18.4,4.7-23.4C531.2,22,517,13.6,499.4,13.6z"/>
	</g>
</g>
<g transform="translate(0,140.367)">
	<g>
		<path class="st0" d="M49.4,154c-17.6,0-30.3,8.9-30.3,21.1c0,5.3,3.7,14,3.7,23.2S11,217.2,11,239.5c0,12.9,13.3,25,39.7,25
			s38-12.2,38-25c0-20.9-12.2-33-12.2-41.5c0-8.5,4.7-18.4,4.7-23.4C81.2,162.3,67,154,49.4,154z"/>
		<g transform="translate(90,0)">
			<path class="st0" d="M139.4,154c-17.6,0-30.3,8.9-30.3,21.1c0,5.3,3.7,14,3.7,23.2s-11.9,19-11.9,41.3c0,12.9,13.3,25,39.7,25
				s38-12.2,38-25c0-20.9-12.2-33-12.2-41.5c0-8.5,4.7-18.4,4.7-23.4C171.2,162.3,157,154,139.4,154z"/>
		</g>
		<g transform="translate(180,0)">
			<path class="st0" d="M229.4,154c-17.6,0-30.3,8.9-30.3,21.1c0,5.3,3.7,14,3.7,23.2s-11.9,19-11.9,41.3c0,12.9,13.3,25,39.7,25
				s38-12.2,38-25c0-20.9-12.2-33-12.2-41.5c0-8.5,4.7-18.4,4.7-23.4C261.2,162.3,247,154,229.4,154z"/>
		</g>
		<g transform="translate(270,0)">
			<path class="st0" d="M319.4,154c-17.6,0-30.3,8.9-30.3,21.1c0,5.3,3.7,14,3.7,23.2s-11.9,19-11.9,41.3c0,12.9,13.3,25,39.7,25
				s38-12.2,38-25c0-20.9-12.2-33-12.2-41.5c0-8.5,4.7-18.4,4.7-23.4C351.2,162.3,337,154,319.4,154z"/>
		</g>
		<g transform="translate(360,0)">
			<path class="st0" d="M409.4,154c-17.6,0-30.3,8.9-30.3,21.1c0,5.3,3.7,14,3.7,23.2s-11.9,19-11.9,41.3c0,12.9,13.3,25,39.7,25
				s38-12.2,38-25c0-20.9-12.2-33-12.2-41.5c0-8.5,4.7-18.4,4.7-23.4C441.2,162.3,427,154,409.4,154z"/>
		</g>
		<g transform="translate(450,0)">
			<path class="st0" d="M499.4,154c-17.6,0-30.3,8.9-30.3,21.1c0,5.3,3.7,14,3.7,23.2s-11.9,19-11.9,41.3c0,12.9,13.3,25,39.7,25
				s38-12.2,38-25c0-20.9-12.2-33-12.2-41.5c0-8.5,4.7-18.4,4.7-23.4C531.2,162.3,517,154,499.4,154z"/>
		</g>
	</g>
</g>
<path class="st1" d="M519.9,262.3c-0.3-17.9-22.1-70.4-3-104.4 M537,225.8c-15.3,3.2-18.2,21.8-6.1,30.6 M489.7,264.5
	c0-49.2,19.6-49.1,19.6,0v0.3 M479.8,262.3c0.3-17.9,22.1-70.4,3-104.4 M462.7,225.8c15.3,3.2,18.2,21.8,6.1,30.6 M472.9,195.5
	c20.4,8.6,37.8,6.8,53.8,0 M371.6,245.4c21.9,15.5,54.8,16,76.2,0 M375.7,216.2c23.1,9.7,45.4,9.4,67.1,0 M381.2,188.8
	c21,7,39.8,7,56.3,0 M391.5,158.5c12.3,3.8,24.3,4.3,35.9,0 M409.4,154.6V265 M281.9,245.4c21.9,15.5,54.8,16,76.2,0 M286,216.2
	c23.1,9.7,45.4,9.4,67.1,0 M291.5,188.8c21,7,39.8,7,56.3,0 M301.7,158.5c12.3,3.8,24.3,4.3,35.9,0 M268.9,239.4
	c-12.6-5.8-26.6,5.6-18.8,22.9 M213.9,263.4c4.7-25.3,25.3-24.8,31.2,0.6 M191,239.4c12.6-5.8,26.6,5.6,18.8,22.9 M197.9,213.1
	c14.6,22.1,48.6,21.7,63.8,0 M201.5,189.4c18,15.7,38.7,15.9,56.3,0 M210.4,159c13.1,5.1,26,5.9,38.4,0 M178,232.5
	c-32,4.6-30.3-45.8-25.4-75.9 M101,232.5c32,4.6,30.3-45.8,25.4-75.9 M109.3,180c24.3,8.2,44.3,7.3,61.3,0 M103,248.5
	c25.2-9.4,49.9-11.2,73.7,0 M117,260.6c19-8,16-3.6,24-3.6c8,0,5.5-3.6,23.5,3.6 M15.5,252.1H85 M31.7,158.5
	c10.4,4.1,21.8,5.5,35.9,0 M22.6,200.4h53.6 M50.2,154.6V265 M473.3,23.6c17.4,9.6,35.3,10.9,54,0 M473.3,57.3
	c19.3,7,37.3,8.8,52.7,0 M461.2,92.4c27.9,13.5,53.5,13.5,76.7,0 M418.1,14.2c-12.9,37.3-14.4,74.9-3.7,109.4 M392.6,16.7
	c-14.1,43.1-10.8,76.8-3,104.2 M437.2,50.3c-4.3,20.3-6.4,40.4,1,66.6 M288.9,35.5c20.3,9.4,40.9,8.4,61.9,0 M281,97.4
	c25.5-16,51.3-14.4,77.5,0 M318.8,13.2v110.4 M244.4,15.7c-6.5,40.1-3.8,74.6,6.2,104.7 M215.4,15.7c6.5,40.1,3.8,74.6-6.2,104.7
	 M202.5,61.5c17.6-4.8,35.6-5.8,54.5,0 M112.9,59.7c18.3,5.5,36.4,8.3,53.5,0 M141.1,13v110.7 M19.1,35.7h61.9 M12.1,88.7h75.3"/>
<g id="text">
	<text transform="matrix(1 0 0 1 33.6587 140)" class="st2 st3">60Hz</text>
	<text transform="matrix(1 0 0 1 123.6587 140)" class="st2 st3">72Hz</text>
	<text transform="matrix(1 0 0 1 213.6587 140)" class="st2 st3">95Hz</text>
	<text transform="matrix(1 0 0 1 299.7656 140)" class="st2 st3">109Hz</text>
	<text transform="matrix(1 0 0 1 389.7656 140)" class="st2 st3">128Hz</text>
	<text transform="matrix(1 0 0 1 479.7656 140)" class="st2 st3">175Hz</text>
	<text transform="matrix(1 0 0 1 29.7656 280)" class="st2 st3">240Hz</text>
	<text transform="matrix(1 0 0 1 119.7656 280)" class="st2 st3">378Hz</text>
	<text transform="matrix(1 0 0 1 209.7656 280)" class="st2 st3">338Hz</text>
	<text transform="matrix(1 0 0 1 299.7656 280)" class="st2 st3">352Hz</text>
	<text transform="matrix(1 0 0 1 389.7656 280)" class="st2 st3">426Hz</text>
	<text transform="matrix(1 0 0 1 479.7656 280)" class="st2 st3">478Hz</text>
</g>
</svg>
