<?xml version="1.0" encoding="UTF-8" standalone="no"?>
<!-- Created with Inkscape (http://www.inkscape.org/) -->

<svg
   xmlns:svg="http://www.w3.org/2000/svg"
   xmlns="http://www.w3.org/2000/svg"
   xmlns:xlink="http://www.w3.org/1999/xlink"
   version="1.1"
   width="550"
   height="300"
   id="svg6476">
  <defs
     id="defs6478" />
  <rect
     width="550"
     height="300"
     style="fill:#ffffff;stroke:none" />
  <g
     id="g6584">
    <path
       d="m 49.418856,13.62634 c -17.57016,0 -30.25007,8.86876 -30.25007,21.11463 0,5.33508 3.703145,13.95293 3.703145,23.15113 0,9.1982 -11.921931,18.98034 -11.921931,41.26556 0,12.94725 13.349976,24.99591 39.684146,24.95661 26.334165,-0.0393 38.034785,-12.15903 38.034785,-24.95661 0,-20.87262 -12.17714,-32.97175 -12.17714,-41.49475 0,-8.523 4.73957,-18.3682 4.73957,-23.44275 0,-12.24587 -14.24234,-20.59382 -31.812505,-20.59382 z"
       id="path5624"
       style="fill:#fffeea;stroke:#000000;stroke-width:2;" />
    <use
       transform="translate(90,0)"
       xlink:href="#path5624" />
    <use
       transform="translate(180,0)"
       xlink:href="#path5624" />
    <use
       transform="translate(270,0)"
       xlink:href="#path5624" />
    <use
       transform="translate(360,0)"
       xlink:href="#path5624" />
    <use
       transform="translate(450,0)"
       xlink:href="#path5624" />
  </g>
  <use
     transform="translate(0,140.367)"
     xlink:href="#g6584" />
  <path
     d="m 519.8866,262.27522 c -0.27606,-17.94383 -22.08472,-70.39504 -3.03665,-104.35029 m 20.1523,67.91051 c -15.25648,3.17702 -18.23435,21.76084 -6.0733,30.64254 m -41.20034,8.00571 c 0,-49.16995 19.60018,-49.11682 19.60018,0 l 0,0.27606 m -29.53831,-2.48453 c 0.27606,-17.94383 22.08472,-70.39504 3.03665,-104.35029 m -20.1523,67.91051 c 15.25648,3.17702 18.23435,21.76084 6.0733,30.64254 m 4.14088,-61.00903 c 20.40512,8.61452 37.8304,6.79958 53.8315,0 m -155.14514,49.96667 c 21.90068,15.4593 54.75169,16.01142 76.19227,0 m -72.05139,-29.26225 c 23.10742,9.7064 45.44716,9.43289 67.08233,0 m -61.56115,-27.32983 c 20.98048,6.99349 39.75249,6.99349 56.31603,0 m -46.10185,-30.36649 c 12.31118,3.83487 24.31223,4.25826 35.88767,0 m -17.94383,-3.86483 0,110.42359 M 281.85621,245.43562 c 21.90068,15.4593 54.75169,16.01142 76.19227,0 m -72.05139,-29.26225 c 23.10742,9.7064 45.44716,9.43289 67.08233,0 m -61.56115,-27.32983 c 20.98048,6.99349 39.75249,6.99349 56.31603,0 m -46.10185,-30.36649 c 12.31118,3.83487 24.31223,4.25826 35.88767,0 m -68.69763,80.88528 c -12.6179,-5.83052 -26.5597,5.57533 -18.77201,22.91289 m -36.20478,1.10424 c 4.69402,-25.31861 25.27961,-24.78608 31.19466,0.55212 m -54.10755,-24.56925 c 12.6179,-5.83052 26.5597,5.57533 18.77201,22.91289 m -11.87054,-49.13849 c 14.61448,22.13103 48.60292,21.66835 63.76962,0 m -60.18085,-23.74108 c 17.9718,15.68306 38.70895,15.94486 56.31603,0 m -47.48215,-30.36648 c 13.13172,5.11484 25.97583,5.91538 38.3722,0 m -70.72333,73.43168 c -32.01254,4.58308 -30.251,-45.79143 -25.39743,-75.91621 m -51.57079,75.91621 c 32.01254,4.58308 30.251,-45.79143 25.39743,-75.91621 m -17.11566,23.46501 c 24.33058,8.19465 44.31039,7.2527 61.28509,0 m -67.63445,68.46262 c 25.23996,-9.38995 49.93775,-11.18945 73.70775,0 m -59.62874,12.1466 c 19.04807,-8.00571 16.01354,-3.60252 24.01713,-3.58877 8.0036,0.0138 5.52118,-3.58876 23.46501,3.58877 m -149.071838,-8.55783 69.56686,0 M 31.746781,158.47705 c 10.403418,4.05376 21.820768,5.47129 35.887666,0 m -44.997612,41.96096 53.55544,0 m -25.949543,-45.82579 0,110.42359 M 473.3211,23.596739 c 17.37017,9.589486 35.27714,10.858492 53.96653,0 M 473.3211,57.26393 c 19.33773,7.045891 37.3421,8.758345 52.72877,0 m -64.85886,35.152509 c 27.89096,13.532891 53.47142,13.532891 76.74139,0 M 418.11681,14.18973 C 405.17662,51.533171 403.68572,89.058411 414.40352,123.6081 M 392.61887,16.665258 c -14.1462,43.08358 -10.84124,76.818569 -2.97063,104.219762 m 47.53014,-70.55257 c -4.28963,20.299977 -6.42054,40.441553 0.99021,66.59172 M 288.89421,35.47928 c 20.28161,9.39048 40.94687,8.4224 61.88822,0 m -69.80991,61.888217 c 25.48025,-15.997348 51.34406,-14.350583 77.48405,0 m -39.60846,-84.167979 0,110.408582 M 244.40763,15.67505 c -6.51487,40.05164 -3.79441,74.56208 6.18882,104.71486 M 215.371,15.675047 c 6.51487,40.051643 3.79441,74.562085 -6.18882,104.714863 m -6.68393,-58.917581 c 17.55471,-4.793338 35.58893,-5.750671 54.46164,0 m -144.07578,-1.73287 c 18.34537,5.476449 36.43469,8.264301 53.47142,0 m -25.25039,-46.787494 0,110.656135 M 19.061572,35.72683 l 61.888219,0 m -68.8197,52.976316 75.256075,0"
     style="fill:none;stroke:#000000;stroke-width:1px;" />

<g id="text" style="font-family:Waree;font-size:14px;fill:#000;stroke:none;text-anchor:middle;">
	<text x="50" y="140">60Hz</text>
	<text x="140" y="140">72Hz</text>
	<text x="230" y="140">95Hz</text>
	<text x="320" y="140">109Hz</text>
	<text x="410" y="140">128Hz</text>
	<text x="500" y="140">175Hz</text>

	<text x="50" y="280">240Hz</text>
	<text x="140" y="280">378Hz</text>
	<text x="230" y="280">338Hz</text>
	<text x="320" y="280">352Hz</text>
	<text x="410" y="280">426Hz</text>
	<text x="500" y="280">478Hz</text>
</g>
</svg>
